<svg xmlns="http://www.w3.org/2000/svg" xmlns:xlink="http://www.w3.org/1999/xlink" viewBox="0,0,256,256" width="48px" height="48px" fill-rule="nonzero"><g fill="none" fill-rule="nonzero" stroke="none" stroke-width="1" stroke-linecap="butt" stroke-linejoin="miter" stroke-miterlimit="10" stroke-dasharray="" stroke-dashoffset="0" font-family="none" font-weight="none" font-size="none" text-anchor="none" style="mix-blend-mode: normal"><g transform="scale(5.33333,5.33333)"><path d="M3.971,10.01c0,5 -0.164,3.146 -0.16,7.645c0.004,3.752 0.348,5.49 0.195,8.18c-0.127,2.228 -0.195,5.596 -0.049,7.824c0.2,3.044 -1.134,7.326 1.663,9.489c1.768,1.367 4.792,1.236 6.964,1.344c2.172,0.108 5.738,-0.378 7.907,-0.222c6.082,0.439 7.115,-0.805 12.749,-0.576c2.056,0.083 7.625,0.604 9.23,-0.683c1.545,-1.24 2.06,-3.227 2.017,-6.598c-0.057,-4.447 -0.134,-7.87 -0.111,-12.317c0.009,-1.699 0.098,-3.553 0.106,-5.253c0.007,-1.371 -0.257,-4.528 -0.279,-5.899c-0.02,-1.275 -0.435,-6.118 -1.95,-7.447c-3.208,-2.814 -10.432,-2.143 -10.968,-2.16c-5.172,-0.161 -12.527,0.35 -15.177,0.338c-3.513,-0.016 -5.052,-0.001 -7.138,0.335c-3.001,0.484 -5.191,2.091 -4.999,6" fill-opacity="0.96863" fill="#000000"></path><path d="M32.308,15.439c0.859,0.617 1.663,1.719 2.219,2.571c1.222,1.872 1.673,4.382 2.253,4.13c0.662,-0.129 0.919,-0.926 1.026,-1.592c0.268,-1.673 0.383,-3.366 0.497,-5.057c0.044,-0.643 0.087,-1.296 -0.043,-1.927c-0.13,-0.632 -0.456,-1.25 -1.003,-1.591c-0.487,-0.303 -1.085,-0.355 -1.657,-0.398c-0.708,-0.054 -1.415,-0.107 -2.123,-0.161c-1.838,-0.139 -3.681,-0.279 -5.522,-0.183c-0.255,0.013 -0.529,0.039 -0.721,0.206c-0.308,0.268 -0.25,0.79 0.005,1.109c0.254,0.32 0.644,0.494 1.009,0.678c0.947,0.48 3.301,1.473 4.06,2.215" fill="#3d2497"></path><path d="M15.635,31.922c-1.275,-1.055 -2.163,-2.65 -2.711,-4.736c-0.106,-0.402 -0.212,-0.864 -0.578,-1.062c-0.404,-0.218 -0.933,0.032 -1.178,0.421c-0.245,0.389 -0.28,0.869 -0.309,1.327c-0.096,1.542 -0.023,3.812 -0.119,5.354c-0.068,1.097 -0.056,2.381 0.815,3.052c0.441,0.339 1.016,0.44 1.566,0.52c2.413,0.351 4.088,0.363 7.056,0.116c0.613,-0.051 1.475,-0.499 1.572,-1.106c0.078,-0.487 -0.343,-0.929 -0.776,-1.165c-1.702,-0.932 -3.918,-1.714 -5.338,-2.721" fill="#3d2497"></path><path d="M27.184,20.322c-2.645,-3.303 -4.279,-4.758 -7.332,-7.689c-0.284,-0.273 -0.573,-0.546 -0.913,-0.744c-0.448,-0.261 -0.963,-0.379 -1.473,-0.467c-1.081,-0.187 -1.674,-0.364 -3.259,-0.527c-0.394,-0.04 -1.033,-0.061 -1.392,0.107c-0.86,0.404 -0.787,1.809 -0.859,2.757c-0.319,4.175 0.464,5.364 2.921,8.007c2.036,2.19 4.145,4.306 6.367,6.306c2.722,2.45 4.776,4.9 7.498,7.35c0.407,0.367 0.828,0.742 1.344,0.928c0.515,0.186 1.079,0.166 1.626,0.144c0.923,-0.037 2.513,-0.074 3.436,-0.111c0.372,-0.015 0.777,-0.043 1.053,-0.292c0.241,-0.218 0.328,-0.555 0.395,-0.873c0.214,-1.008 0.17,-3.428 0.243,-4.455c0.022,-0.313 0.036,-0.637 -0.079,-0.928c-0.09,-0.227 -0.252,-0.417 -0.41,-0.603c-2.01,-2.344 -3.832,-3.291 -5.842,-5.636c-1.015,-1.185 -1.992,-1.847 -3.324,-3.274" fill="#3d2497"></path><path d="M13.279,45.007c-0.252,0 -0.493,-0.005 -0.719,-0.017c-0.316,-0.016 -0.651,-0.025 -0.998,-0.037c-2.054,-0.064 -4.611,-0.145 -6.247,-1.41c-2.26,-1.746 -2.078,-4.683 -1.917,-7.274c0.058,-0.923 0.112,-1.795 0.06,-2.576c-0.148,-2.249 -0.079,-5.664 0.049,-7.886c0.083,-1.448 0.017,-2.632 -0.059,-4.003c-0.063,-1.145 -0.135,-2.441 -0.137,-4.148c-0.002,-2.214 0.036,-2.895 0.077,-3.615c0.041,-0.73 0.083,-1.487 0.083,-4.018c-0.179,-3.708 1.645,-5.897 5.42,-6.506c2.165,-0.35 3.774,-0.354 7.22,-0.342c0.932,-0.008 2.544,-0.06 4.392,-0.136c3.335,-0.136 7.486,-0.306 10.798,-0.202c0.057,0 0.168,-0.004 0.339,-0.012c5.255,-0.243 8.938,0.536 10.943,2.296c1.936,1.697 2.119,7.754 2.12,7.814c0.01,0.614 0.068,1.591 0.129,2.602c0.075,1.249 0.153,2.54 0.149,3.308c-0.004,0.855 -0.029,1.751 -0.053,2.646c-0.024,0.882 -0.048,1.764 -0.053,2.607c-0.018,3.386 0.022,6.12 0.069,9.286l0.042,3.021c0.047,3.675 -0.592,5.701 -2.204,6.994c-1.422,1.143 -5.18,1.035 -8.588,0.844c-0.375,-0.021 -0.705,-0.039 -0.975,-0.05c-2.6,-0.105 -4.23,0.11 -5.806,0.321c-1.811,0.24 -3.683,0.49 -6.959,0.254c-1.103,-0.082 -2.617,0.014 -4.083,0.104c-1.062,0.067 -2.156,0.135 -3.092,0.135zM14.611,4.171c-2.409,0 -3.807,0.05 -5.56,0.332c-3.238,0.522 -4.736,2.315 -4.58,5.482v0.024c0,2.569 -0.043,3.341 -0.085,4.087c-0.04,0.706 -0.077,1.372 -0.075,3.558c0.001,1.68 0.073,2.963 0.135,4.095c0.078,1.4 0.145,2.61 0.059,4.114c-0.125,2.192 -0.194,5.557 -0.049,7.763c0.056,0.846 0,1.749 -0.06,2.705c-0.153,2.457 -0.311,4.998 1.53,6.421c1.38,1.067 3.757,1.142 5.667,1.202c0.353,0.011 0.694,0.021 1.016,0.038c1.008,0.046 2.377,-0.035 3.702,-0.117c1.499,-0.092 3.048,-0.188 4.217,-0.104c3.175,0.229 4.915,-0.003 6.755,-0.247c1.618,-0.216 3.288,-0.439 5.979,-0.33c0.273,0.012 0.609,0.03 0.99,0.052c2.164,0.121 6.664,0.372 7.907,-0.625c1.342,-1.077 1.872,-2.874 1.83,-6.201l-0.042,-3.021c-0.047,-3.171 -0.087,-5.91 -0.069,-9.307c0.004,-0.851 0.029,-1.739 0.053,-2.629c0.024,-0.888 0.049,-1.774 0.053,-2.624c0.004,-0.734 -0.073,-2.009 -0.147,-3.242c-0.062,-1.028 -0.122,-2.021 -0.131,-2.646c-0.024,-1.494 -0.49,-5.948 -1.779,-7.078c-1.241,-1.09 -4.028,-2.334 -10.239,-2.049c-0.21,0.01 -0.352,0.014 -0.416,0.013c-3.275,-0.103 -7.407,0.065 -10.726,0.201c-1.859,0.075 -3.469,0.135 -4.438,0.137c-0.542,-0.002 -1.038,-0.004 -1.497,-0.004z" fill-opacity="0.96863" fill="#000000"></path><path d="M36.7,22.658c-0.09,0 -0.181,-0.018 -0.267,-0.053c-0.452,-0.186 -0.696,-0.789 -1.1,-1.789c-0.311,-0.77 -0.697,-1.726 -1.224,-2.532c-0.762,-1.168 -1.466,-1.988 -2.093,-2.438l-0.058,-0.049c-0.525,-0.514 -2.068,-1.239 -3.089,-1.72c-0.333,-0.156 -0.628,-0.295 -0.848,-0.406l-0.105,-0.053c-0.361,-0.181 -0.771,-0.385 -1.069,-0.76c-0.395,-0.497 -0.485,-1.326 0.058,-1.799c0.31,-0.269 0.691,-0.311 1.023,-0.328c1.875,-0.098 3.762,0.045 5.586,0.184l2.123,0.161c0.569,0.043 1.278,0.097 1.882,0.472c0.618,0.386 1.055,1.065 1.229,1.916c0.144,0.7 0.097,1.392 0.052,2.062c-0.114,1.679 -0.231,3.408 -0.502,5.103c-0.229,1.432 -0.868,1.878 -1.38,1.994c-0.07,0.023 -0.144,0.035 -0.218,0.035zM32.63,15.055c0.729,0.532 1.487,1.41 2.317,2.683c0.58,0.888 0.986,1.896 1.313,2.704c0.174,0.431 0.384,0.949 0.526,1.173c0.322,-0.164 0.467,-0.773 0.526,-1.145c0.264,-1.649 0.379,-3.355 0.491,-5.006c0.042,-0.608 0.083,-1.231 -0.033,-1.799c-0.117,-0.57 -0.401,-1.033 -0.778,-1.268c-0.395,-0.246 -0.945,-0.287 -1.43,-0.323l-2.123,-0.161c-1.792,-0.136 -3.645,-0.278 -5.458,-0.184c-0.12,0.007 -0.344,0.019 -0.42,0.085c-0.067,0.058 -0.045,0.277 0.069,0.422c0.16,0.201 0.438,0.34 0.733,0.487l0.109,0.055c0.213,0.108 0.5,0.242 0.822,0.395c1.195,0.561 2.675,1.258 3.336,1.882z" fill-opacity="0.96863" fill="#000000"></path><path d="M16.783,37.583c-1.269,0 -2.387,-0.096 -3.733,-0.291c-0.647,-0.095 -1.272,-0.213 -1.799,-0.618c-1.168,-0.899 -1.061,-2.642 -1.009,-3.479c0.047,-0.757 0.053,-1.719 0.059,-2.648c0.006,-0.944 0.012,-1.92 0.061,-2.705c0.029,-0.471 0.065,-1.057 0.385,-1.562c0.36,-0.569 1.166,-0.958 1.838,-0.593c0.541,0.291 0.696,0.887 0.81,1.321c0.54,2.056 1.392,3.559 2.545,4.518c0.821,0.579 1.965,1.103 3.071,1.609c0.746,0.341 1.517,0.694 2.204,1.069c0.551,0.3 1.151,0.921 1.03,1.683c-0.15,0.937 -1.296,1.464 -2.024,1.525c-1.36,0.112 -2.445,0.171 -3.438,0.171zM12.018,26.544c-0.14,0 -0.328,0.111 -0.426,0.269c-0.183,0.289 -0.209,0.715 -0.232,1.091c-0.047,0.757 -0.053,1.719 -0.059,2.648c-0.006,0.944 -0.012,1.92 -0.061,2.705c-0.066,1.064 -0.036,2.118 0.621,2.624c0.335,0.259 0.822,0.347 1.333,0.421c2.313,0.338 3.935,0.364 6.942,0.113c0.488,-0.041 1.074,-0.401 1.12,-0.688c0.034,-0.217 -0.243,-0.495 -0.521,-0.647c-0.656,-0.357 -1.411,-0.703 -2.141,-1.037c-1.155,-0.529 -2.35,-1.076 -3.248,-1.713l-0.029,-0.022c-1.325,-1.096 -2.293,-2.775 -2.875,-4.994c-0.089,-0.339 -0.174,-0.663 -0.332,-0.748c-0.027,-0.015 -0.058,-0.022 -0.092,-0.022z" fill-opacity="0.96863" fill="#000000"></path><path d="M31.181,37.007c-0.411,0 -0.843,-0.036 -1.266,-0.189c-0.614,-0.221 -1.088,-0.647 -1.508,-1.024c-1.372,-1.235 -2.591,-2.486 -3.77,-3.695c-1.169,-1.2 -2.378,-2.44 -3.728,-3.654c-2.099,-1.89 -4.192,-3.963 -6.399,-6.337c-2.528,-2.721 -3.383,-4.059 -3.053,-8.386c0.01,-0.135 0.018,-0.279 0.025,-0.429c0.048,-0.958 0.114,-2.271 1.12,-2.743c0.49,-0.23 1.248,-0.195 1.656,-0.151c1.148,0.118 1.781,0.242 2.451,0.373c0.264,0.053 0.533,0.105 0.842,0.159c0.541,0.093 1.115,0.221 1.64,0.527c0.406,0.236 0.74,0.558 1.009,0.816l1.056,1.011c2.39,2.283 3.971,3.794 6.307,6.711c0.613,0.655 1.144,1.141 1.657,1.609c0.573,0.524 1.115,1.02 1.668,1.665c0.979,1.143 1.896,1.93 2.866,2.763c0.957,0.821 1.946,1.671 2.976,2.873c0.166,0.192 0.373,0.434 0.496,0.744c0.153,0.385 0.14,0.777 0.113,1.147c-0.024,0.341 -0.035,0.838 -0.047,1.386c-0.025,1.137 -0.054,2.425 -0.205,3.137c-0.083,0.388 -0.2,0.826 -0.55,1.142c-0.422,0.381 -0.991,0.404 -1.367,0.421c-0.464,0.019 -1.094,0.036 -1.725,0.055c-0.626,0.019 -1.252,0.037 -1.712,0.056c-0.179,0.005 -0.363,0.013 -0.552,0.013zM13.672,11.366c-0.286,0 -0.522,0.03 -0.645,0.088c-0.463,0.217 -0.51,1.144 -0.547,1.889c-0.008,0.158 -0.016,0.312 -0.026,0.454c-0.311,4.069 0.474,5.138 2.788,7.628c2.188,2.353 4.26,4.405 6.336,6.275c1.374,1.236 2.595,2.488 3.775,3.699c1.167,1.198 2.375,2.437 3.723,3.649c0.368,0.331 0.749,0.674 1.179,0.828c0.431,0.157 0.941,0.135 1.436,0.115c0.463,-0.019 1.094,-0.036 1.724,-0.055c0.626,-0.019 1.252,-0.037 1.712,-0.056c0.307,-0.013 0.596,-0.035 0.739,-0.163c0.127,-0.115 0.189,-0.363 0.241,-0.607c0.132,-0.62 0.161,-1.913 0.184,-2.951c0.013,-0.566 0.024,-1.082 0.05,-1.435c0.019,-0.266 0.03,-0.519 -0.045,-0.709c-0.061,-0.153 -0.195,-0.31 -0.324,-0.46c-0.981,-1.145 -1.898,-1.933 -2.869,-2.766c-0.956,-0.821 -1.944,-1.671 -2.973,-2.871c-0.514,-0.6 -1.009,-1.053 -1.583,-1.577c-0.507,-0.463 -1.081,-0.987 -1.727,-1.68l-0.024,-0.028c-2.301,-2.875 -3.864,-4.368 -6.229,-6.628l-1.058,-1.013c-0.293,-0.282 -0.539,-0.511 -0.818,-0.674c-0.388,-0.226 -0.858,-0.328 -1.307,-0.405c-0.318,-0.056 -0.594,-0.109 -0.864,-0.163c-0.647,-0.127 -1.258,-0.246 -2.361,-0.36c-0.172,-0.016 -0.336,-0.024 -0.487,-0.024z" fill-opacity="0.96863" fill="#000000"></path></g></g></svg>